<svg width="800" height="600" xmlns="http://www.w3.org/2000/svg">

 <g>
  <title>Layer 1</title>
  <path stroke="#000" id="svg_1" d="m403.99859,476.26022c-53.15903,6.91792 -102.197,-28.38785 -102.197,-80.51586c0,-52.12801 44.79743,-108.18753 102.197,-108.18753c57.39957,0 116.61483,43.761 116.61483,95.88901c0,52.12801 -63.4558,85.89646 -116.61483,92.81438z" opacity="undefined" fill="#7B572D"/>
  <ellipse stroke="#000" ry="72.60974" rx="61.91187" id="svg_23" cy="403.65049" cx="389.1567" fill="#ffffff"/>
  <path stroke="#000" id="svg_20" d="m478.77372,311.84874c19.90086,3.14487 33.74107,14.49427 44.86812,44.04873c11.12705,29.55446 -25.29013,108.03649 -32.14932,105.22666c-6.85919,-2.80983 -7.51173,-9.84939 -30.83355,-36.14103c-23.32182,-26.29164 -36.50959,-57.0395 -39.24686,-70.58916c-5.54837,-27.46463 17.03828,-34.89405 40.515,-40.34627c6.85083,-1.59102 14.43181,-2.58054 16.84661,-2.19895l0,0.00002z" fill="#7B572D"/>
  <path stroke="#000" id="svg_19" d="m352.88726,329.79779c3.94046,13.74214 22.68816,10.40106 9.06347,25.0745c-8.59141,9.25272 -39.64652,93.26573 -52.64932,103.7828c-13.0028,10.51706 -39.05327,-40.60336 -41.27498,-65.27546c-2.2217,-24.6721 14.15513,-45.82419 22.02957,-56.08172c15.96117,-20.79162 45.84916,-26.39915 56.37646,-16.03229c3.072,3.02521 5.97666,6.86469 6.45481,8.53217l-0.00001,0.00001z" fill="#7B572D"/>
  <ellipse stroke="#000" ry="68.79485" rx="106.86159" id="svg_16" cy="278.33088" cx="396.78968" fill="#7B572D"/>
  <path stroke="#000" id="svg_27" d="m470.89548,219.79646c5.98801,2.87763 8.67809,25.91857 24.08349,27.4181c15.4054,1.49953 26.18302,55.22461 24.71174,54.15514c-0.4802,-0.34906 -8.95171,-9.97375 -18.82556,-21.38821c-15.81687,-18.28476 -18.60446,-21.76589 -23.43346,-29.2637c-9.78818,-15.19777 -14.38709,-29.15933 -10.12084,-30.72533c1.24496,-0.45697 2.85804,-0.54517 3.58463,-0.196l0,0.00001z" fill="#7B572D"/>
  <path transform="rotate(74.9556 308.65 246.959)" stroke="#000" id="svg_43" d="m287.44941,208.59653c18.98787,2.93898 6.79461,17.52496 22.20001,19.02449c15.40541,1.49953 28.0665,63.61821 26.59522,62.54874c-0.48021,-0.34906 -8.95171,-9.97375 -18.82557,-21.38821c-15.81687,-18.28475 -18.60446,-21.76589 -23.43346,-29.2637c-9.78818,-15.19776 -2.12419,-19.63981 -10.12084,-30.72533c-7.99665,-11.08552 2.85804,-0.54517 3.58463,-0.196l0.00001,0.00001z" fill="#7B572D"/>
  <path stroke="#000" id="svg_13" d="m346.9935,45.46594l48.00289,-22.15538l57.87463,23.89787c16,16 28.96578,62.22436 33.27394,93.11611c4.30816,30.89174 8.3563,32.90375 5.3563,57.90375c-3,25 13.40511,40.4462 3.65644,48.12682c-9.74867,7.68062 -72.38908,2.25998 -72.38908,2.25998c0,0 -76.85765,-15.42305 -76.85765,-15.42305c0,7 -39.1402,-7.93726 -22.1402,-10.93726c-8,-4 15.21373,-34.98383 15.21373,-34.98383c0,0 33.2664,-21.2894 33.2664,-21.2894c0,0 1.14208,-7.15662 24.14208,-18.15662c13,-29 5.54058,-28.97844 19.54058,-34.97844c1,-13 2.59225,-25.22251 2.59225,-25.22251c0,0 -10.1911,-13.823 -10.1911,-13.823c-26,-23 -40.92566,0.11897 -48.92566,-7.88103c-10,33 -25.66456,20.64581 -12.41555,-20.45402z" opacity="NaN" fill="#0000bf"/>
  <text stroke="#000" transform="rotate(13.5064 433.583 126.657) matrix(2.17812 1.86355 -1.27774 2.53779 -711.294 -1658.94)" font-weight="bold" xml:space="preserve" text-anchor="start" font-family="Noto Sans JP" font-size="24" stroke-width="0" id="svg_22" y="229.88125" x="649.84899" fill="#ffffff">?</text>
  <text stroke="#000" transform="matrix(1.36312 -0.699405 0.697766 2.04576 -635.209 189.79)" font-weight="bold" xml:space="preserve" text-anchor="start" font-family="Noto Sans JP" font-size="24" stroke-width="0" id="svg_26" y="259.04147" x="685.53716" fill="#ffffff">?</text>
  <ellipse stroke="#000" ry="46.07321" rx="43.28884" id="svg_4" cy="271.75105" cx="424.27978" fill="#fff"/>
  <ellipse stroke="#fff" ry="34.20526" rx="25.0635" id="svg_15" cy="272.25625" cx="409.5494" fill="#000"/>
  <ellipse stroke="#000" ry="37.16686" rx="34.63107" id="svg_3" cy="265.7549" cx="348.72208" fill="#fff"/>
  <ellipse stroke="#fff" ry="29.09231" rx="21.36729" id="svg_14" cy="267.56133" cx="359.91591" fill="#000"/>
  <path stroke="#000" id="svg_18" d="m385.84944,276.43059c6.32536,2.71981 10.70671,11.02893 9.49832,18.01332c-0.76198,4.40419 -15.2464,30.93182 -16.43592,30.10174c-0.38824,-0.27093 -3.74922,-6.59839 -7.46885,-14.06102c-5.95845,-11.95435 -6.74838,-14.17667 -6.64038,-18.6816c0.21889,-9.13132 7.18474,-16.46712 15.3298,-16.14396c2.37684,0.09431 4.94951,0.44149 5.71703,0.77151l0,0z" fill="#c9bc0a"/>
  <g stroke="null" id="svg_38">
   <ellipse stroke="#000" ry="13.71429" rx="5.57692" id="svg_33" cy="479.28571" cx="375.42308" fill="#ead409"/>
   <ellipse stroke="#000" ry="13.71429" rx="5.57692" id="svg_34" cy="474.71429" cx="357.57692" fill="#ead409"/>
   <ellipse stroke="#000" ry="13.71429" rx="5.57692" id="svg_32" cy="478.14286" cx="366.5" fill="#ead409"/>
  </g>
  <g stroke="null" id="svg_39">
   <ellipse stroke="#000" ry="12.88889" rx="5.74074" id="svg_35" cy="480.11111" cx="395.74074" fill="#ead409"/>
   <ellipse stroke="#000" ry="12.88889" rx="5.74074" id="svg_36" cy="476.88889" cx="415.25926" fill="#ead409"/>
   <ellipse stroke="#000" ry="12.88889" rx="5.74074" id="svg_37" cy="479.03704" cx="404.92593" fill="#ead409"/>
  </g>
  <text stroke="#000" transform="rotate(-96.0614 361.464 208.834) matrix(2.41723 1.43788 -1.41802 1.95812 -836.82 -1246.15)" font-weight="bold" xml:space="preserve" text-anchor="start" font-family="Noto Sans JP" font-size="24" stroke-width="0" id="svg_40" y="272.73114" x="645.13132" fill="#ffffff">?</text>
  <text stroke="#000" transform="rotate(126.704 417.465 65.8407) matrix(1.31032 0.880374 -0.768673 1.1989 -266.451 -688.494)" font-weight="bold" xml:space="preserve" text-anchor="start" font-family="Noto Sans JP" font-size="24" stroke-width="0" id="svg_41" y="179.69427" x="616.77327" fill="#ffffff">?</text>
  <text stroke="#000" transform="rotate(-157.389 434.513 184.276) matrix(1.59946 1.31085 -0.938293 1.78513 -435.123 -1075.52)" font-weight="bold" xml:space="preserve" text-anchor="start" font-family="Noto Sans JP" font-size="24" stroke-width="0" id="svg_42" y="222.02922" x="663.35938" fill="#ffffff">?</text>
  <text stroke="#000" transform="rotate(44.9503 385.461 35.7635) matrix(0.748681 0.858234 -0.439199 1.16875 -7.58915 -649.008)" font-weight="bold" xml:space="preserve" text-anchor="start" font-family="Noto Sans JP" font-size="24" stroke-width="0" id="svg_44" y="147.945" x="601.18256" fill="#ffffff">?</text>
  <text stroke="#000" transform="rotate(-33.5925 454.92 66.4781) matrix(0.540757 0.758595 -0.317224 1.03306 170.038 -603.353)" font-weight="bold" xml:space="preserve" text-anchor="start" font-family="Noto Sans JP" font-size="24" stroke-width="0" id="svg_45" y="190.48206" x="628.06006" fill="#ffffff">?</text>
  <text stroke="#000" transform="rotate(126.704 380.965 169.287) matrix(1.39637 0.492023 -0.819154 0.67004 -308.462 -300.466)" font-weight="bold" xml:space="preserve" text-anchor="start" font-family="Noto Sans JP" font-size="24" stroke-width="0" id="svg_46" y="244.40615" x="626.53991" fill="#ffffff">?</text>
  <text stroke="#000" transform="rotate(154.876 480.993 157.872) matrix(0.411938 0.864103 -0.241655 1.17674 204.5 -654.392)" font-weight="bold" xml:space="preserve" text-anchor="start" font-family="Noto Sans JP" font-size="24" stroke-width="0" id="svg_47" y="145.78911" x="746.13613" fill="#ffffff">?</text>
  <text stroke="#000" transform="rotate(170.243 347.994 66.868) matrix(0.411938 0.864103 -0.241655 1.17674 204.5 -654.392)" font-weight="bold" xml:space="preserve" text-anchor="start" font-family="Noto Sans JP" font-size="24" stroke-width="0" id="svg_48" y="257.44417" x="488.77216" fill="#ffffff">?</text>
  <text stroke="#000" transform="rotate(-89.1331 376.848 56.5191) matrix(0.253924 0.448771 -0.148959 0.611139 298.88 -329.224)" font-weight="bold" xml:space="preserve" text-anchor="start" font-family="Noto Sans JP" font-size="24" stroke-width="0" id="svg_49" y="291.38548" x="467.40065" fill="#ffffff">?</text>
 </g>
</svg>