<svg width="400" height="400" xmlns="http://www.w3.org/2000/svg">
 <title>Quirator-favicon.svg</title>
 <g>
  <title>Layer 1</title>
  <g stroke="null" id="svg_1">
   <ellipse stroke="#000" fill="#7B572D" cx="197.78968" cy="295.33088" id="svg_16" rx="106.86159" ry="68.79485"/>
   <path stroke="#000" fill="#7B572D" d="m271.89548,236.79646c5.98801,2.87763 8.67809,25.91857 24.08349,27.4181c15.4054,1.49953 26.18302,55.22461 24.71174,54.15514c-0.4802,-0.34906 -8.95171,-9.97375 -18.82556,-21.38821c-15.81687,-18.28476 -18.60446,-21.76589 -23.43346,-29.2637c-9.78818,-15.19777 -14.38709,-29.15933 -10.12084,-30.72533c1.24496,-0.45697 2.85804,-0.54517 3.58463,-0.196l0,0.00001l0,-0.00001z" id="svg_27"/>
   <path transform="rotate(74.9556 109.65 263.959)" stroke="#000" fill="#7B572D" d="m88.44941,225.59653c18.98787,2.93898 6.79461,17.52496 22.20001,19.02449c15.40541,1.49953 28.0665,63.61821 26.59522,62.54874c-0.48021,-0.34906 -8.95171,-9.97375 -18.82557,-21.38821c-15.81687,-18.28475 -18.60446,-21.76589 -23.43346,-29.2637c-9.78818,-15.19776 -2.12419,-19.63981 -10.12084,-30.72533c-7.99665,-11.08552 2.85804,-0.54517 3.58463,-0.196l0.00001,0.00001z" id="svg_43"/>
   <path stroke="#000" fill="#0000bf" opacity="NaN" d="m147.9935,62.46594l48.00289,-22.15538l57.87463,23.89787c16,16 28.96578,62.22436 33.27394,93.11611c4.30816,30.89174 8.3563,32.90375 5.3563,57.90375c-3,25 13.40511,40.4462 3.65644,48.12682c-9.74867,7.68062 -72.38908,2.25998 -72.38908,2.25998c0,0 -76.85765,-15.42305 -76.85765,-15.42305c0,7 -39.1402,-7.93726 -22.1402,-10.93726c-8,-4 15.21373,-34.98383 15.21373,-34.98383c0,0 33.2664,-21.2894 33.2664,-21.2894c0,0 1.14208,-7.15662 24.14208,-18.15662c13,-29 5.54058,-28.97844 19.54058,-34.97844c1,-13 2.59225,-25.22251 2.59225,-25.22251c0,0 -10.1911,-13.823 -10.1911,-13.823c-26,-23 -40.92566,0.11897 -48.92566,-7.88103c-10,33 -25.66456,20.64581 -12.41555,-20.45402l0,0.00001z" id="svg_13"/>
   <text stroke="#000" fill="#ffffff" x="588.73959" y="281.45385" id="svg_22" stroke-width="0" font-size="24" font-family="Noto Sans JP" text-anchor="start" xml:space="preserve" font-weight="bold" transform="rotate(13.5064 234.559 143.624) matrix(2.17812 1.86355 -1.27774 2.53779 -711.294 -1658.94)">?</text>
   <text stroke="#000" fill="#ffffff" x="557.67185" y="223.63671" id="svg_26" stroke-width="0" font-size="24" font-family="Noto Sans JP" text-anchor="start" xml:space="preserve" font-weight="bold" transform="matrix(1.36312 -0.699405 0.697766 2.04576 -635.209 189.79)">?</text>
   <ellipse stroke="#000" fill="#fff" cx="225.27978" cy="288.75105" id="svg_4" rx="43.28884" ry="46.07321"/>
   <ellipse stroke="#fff" fill="#000" cx="210.5494" cy="289.25625" id="svg_15" rx="25.0635" ry="34.20526"/>
   <ellipse stroke="#000" fill="#fff" cx="149.72208" cy="282.7549" id="svg_3" rx="34.63107" ry="37.16686"/>
   <ellipse stroke="#fff" fill="#000" cx="160.91591" cy="284.56133" id="svg_14" rx="21.36729" ry="29.09231"/>
   <path stroke="#000" fill="#c9bc0a" d="m186.84944,293.43059c6.32536,2.71981 10.70671,11.02893 9.49832,18.01332c-0.76198,4.40419 -15.2464,30.93182 -16.43592,30.10174c-0.38824,-0.27093 -3.74922,-6.59839 -7.46885,-14.06102c-5.95845,-11.95435 -6.74838,-14.17667 -6.64038,-18.6816c0.21889,-9.13132 7.18474,-16.46712 15.3298,-16.14396c2.37684,0.09431 4.94951,0.44149 5.71703,0.77151l0,0l0,0.00001z" id="svg_18"/>
   <text stroke="#000" fill="#ffffff" x="591.15164" y="321.05111" id="svg_40" stroke-width="0" font-size="24" font-family="Noto Sans JP" text-anchor="start" xml:space="preserve" font-weight="bold" transform="rotate(-96.0614 162.272 226.071) matrix(2.41723 1.43788 -1.41802 1.95812 -836.82 -1246.15)">?</text>
   <text stroke="#000" fill="#ffffff" x="516.44073" y="267.54993" id="svg_41" stroke-width="0" font-size="24" font-family="Noto Sans JP" text-anchor="start" xml:space="preserve" font-weight="bold" transform="rotate(126.704 217.695 82.8263) matrix(1.31032 0.880374 -0.768673 1.1989 -266.451 -688.494)">?</text>
   <text stroke="#000" fill="#ffffff" x="580.30606" y="292.53974" id="svg_42" stroke-width="0" font-size="24" font-family="Noto Sans JP" text-anchor="start" xml:space="preserve" font-weight="bold" transform="rotate(-157.389 234.88 201.447) matrix(1.59946 1.31085 -0.938293 1.78513 -435.123 -1075.52)">?</text>
   <text stroke="#000" fill="#ffffff" x="421.37209" y="294.52848" id="svg_44" stroke-width="0" font-size="24" font-family="Noto Sans JP" text-anchor="start" xml:space="preserve" font-weight="bold" transform="rotate(44.9503 186.682 52.7081) matrix(0.748681 0.858234 -0.439199 1.16875 -7.58915 -649.008)">?</text>
   <text stroke="#000" fill="#ffffff" x="377.60167" y="390.85426" id="svg_45" stroke-width="0" font-size="24" font-family="Noto Sans JP" text-anchor="start" xml:space="preserve" font-weight="bold" transform="rotate(-33.5925 255.956 83.5619) matrix(0.540757 0.758595 -0.317224 1.03306 170.038 -603.353)">?</text>
   <text stroke="#000" fill="#ffffff" x="537.33745" y="335.28082" id="svg_46" stroke-width="0" font-size="24" font-family="Noto Sans JP" text-anchor="start" xml:space="preserve" font-weight="bold" transform="rotate(126.704 181.976 187.294) matrix(1.39637 0.492023 -0.819154 0.67004 -308.462 -300.466)">?</text>
   <text stroke="#000" fill="#ffffff" x="414.42214" y="403.81981" id="svg_47" stroke-width="0" font-size="24" font-family="Noto Sans JP" text-anchor="start" xml:space="preserve" font-weight="bold" transform="rotate(154.876 282.504 175.369) matrix(0.411938 0.864103 -0.241655 1.17674 204.5 -654.392)">?</text>
   <text stroke="#000" fill="#ffffff" x="157.05817" y="515.47487" id="svg_48" stroke-width="0" font-size="24" font-family="Noto Sans JP" text-anchor="start" xml:space="preserve" font-weight="bold" transform="rotate(170.243 148.894 84.6055) matrix(0.411938 0.864103 -0.241655 1.17674 204.5 -654.392)">?</text>
   <text stroke="#000" fill="#ffffff" x="467.40065" y="291.38548" id="svg_49" stroke-width="0" font-size="24" font-family="Noto Sans JP" text-anchor="start" xml:space="preserve" font-weight="bold" transform="rotate(-89.1331 177.223 74.2054) matrix(0.253924 0.448771 -0.148959 0.611139 99.88 -312.224)">?</text>
  </g>
 </g>

</svg>